HIERARCHY
ROOT Hips
{
	OFFSET -14.64140 90.27770 -84.91600
	CHANNELS 6 Xposition Yposition Zposition Zrotation Xrotation Yrotation
	JOINT Spine
	{
		OFFSET 0.00000 13.20850 -1.60436
		CHANNELS 3 Zrotation Xrotation Yrotation
		JOINT Spine1
		{
			OFFSET 0.00000 8.61716 0.00000
			CHANNELS 3 Zrotation Xrotation Yrotation
			JOINT Spine2
			{
				OFFSET 0.00000 8.61717 0.00000
				CHANNELS 3 Zrotation Xrotation Yrotation
				JOINT Spine3
				{
					OFFSET 0.00000 8.61717 0.00000
					CHANNELS 3 Zrotation Xrotation Yrotation
					JOINT Neck
					{
						OFFSET 0.00000 11.07920 1.10792
						CHANNELS 3 Zrotation Xrotation Yrotation
						JOINT Neck1
						{
							OFFSET 0.00000 7.08032 0.00000
							CHANNELS 3 Zrotation Xrotation Yrotation
							JOINT Head
							{
								OFFSET 0.00000 7.08031 0.00000
								CHANNELS 3 Zrotation Xrotation Yrotation
								End site
								{
									OFFSET 0.00000 0.00000 0.00000
								}
							}
						}
					}
					JOINT RightShoulder
					{
						OFFSET -0.01000 7.91373 5.19711
						CHANNELS 3 Zrotation Xrotation Yrotation
						JOINT RightArm
						{
							OFFSET -18.41580 0.00000 0.00000
							CHANNELS 3 Zrotation Xrotation Yrotation
							JOINT RightForeArm
							{
								OFFSET -29.11090 0.00000 0.00000
								CHANNELS 3 Zrotation Xrotation Yrotation
								JOINT RightHand
								{
									OFFSET -24.65040 0.00000 0.00000
									CHANNELS 3 Zrotation Xrotation Yrotation
									JOINT RightHandThumb1
									{
										OFFSET -5.35114 -0.85590 3.97906
										CHANNELS 3 Zrotation Xrotation Yrotation
										JOINT RightHandThumb2
										{
											OFFSET -4.52789 0.00000 0.00000
											CHANNELS 3 Zrotation Xrotation Yrotation
											JOINT RightHandThumb3
											{
												OFFSET -2.46976 0.00000 0.00000
												CHANNELS 3 Zrotation Xrotation Yrotation
												End site
												{
													OFFSET 0.00000 0.00000 0.00000
												}
											}
										}
									}
									JOINT RightHandIndex1
									{
										OFFSET -14.26970 0.00000 2.88139
										CHANNELS 3 Zrotation Xrotation Yrotation
										JOINT RightHandIndex2
										{
											OFFSET -5.48836 0.00000 0.00000
											CHANNELS 3 Zrotation Xrotation Yrotation
											JOINT RightHandIndex3
											{
												OFFSET -3.01859 0.00000 0.00000
												CHANNELS 3 Zrotation Xrotation Yrotation
												End site
												{
													OFFSET 0.00000 0.00000 0.00000
												}
											}
										}
									}
									JOINT RightHandMiddle1
									{
										OFFSET -14.26970 0.00000 -0.09147
										CHANNELS 3 Zrotation Xrotation Yrotation
										JOINT RightHandMiddle2
										{
											OFFSET -6.17441 0.00000 0.00000
											CHANNELS 3 Zrotation Xrotation Yrotation
											JOINT RightHandMiddle3
											{
												OFFSET -3.56743 0.00000 0.00000
												CHANNELS 3 Zrotation Xrotation Yrotation
												End site
												{
													OFFSET 0.00000 0.00000 0.00000
												}
											}
										}
									}
									JOINT RightHandRing1
									{
										OFFSET -12.69180 0.00000 -3.06433
										CHANNELS 3 Zrotation Xrotation Yrotation
										JOINT RightHandRing2
										{
											OFFSET -5.62556 0.00000 0.00000
											CHANNELS 3 Zrotation Xrotation Yrotation
											JOINT RightHandRing3
											{
												OFFSET -3.56744 0.00000 0.00000
												CHANNELS 3 Zrotation Xrotation Yrotation
												End site
												{
													OFFSET 0.00000 0.00000 0.00000
												}
											}
										}
									}
									JOINT RightHandPinky1
									{
										OFFSET -11.11390 0.00000 -6.03719
										CHANNELS 3 Zrotation Xrotation Yrotation
										JOINT RightHandPinky2
										{
											OFFSET -4.52789 0.00000 0.00000
											CHANNELS 3 Zrotation Xrotation Yrotation
											JOINT RightHandPinky3
											{
												OFFSET -2.46976 0.00000 0.00000
												CHANNELS 3 Zrotation Xrotation Yrotation
												End site
												{
													OFFSET 0.00000 0.00000 0.00000
												}
											}
										}
									}
								}
							}
						}
					}
					JOINT LeftShoulder
					{
						OFFSET 0.01000 7.91373 5.19711
						CHANNELS 3 Zrotation Xrotation Yrotation
						JOINT LeftArm
						{
							OFFSET 18.41580 0.00000 0.00000
							CHANNELS 3 Zrotation Xrotation Yrotation
							JOINT LeftForeArm
							{
								OFFSET 29.11090 0.00000 0.00000
								CHANNELS 3 Zrotation Xrotation Yrotation
								JOINT LeftHand
								{
									OFFSET 24.65040 0.00000 0.00000
									CHANNELS 3 Zrotation Xrotation Yrotation
									JOINT LeftHandThumb1
									{
										OFFSET 5.35114 -0.85590 3.97906
										CHANNELS 3 Zrotation Xrotation Yrotation
										JOINT LeftHandThumb2
										{
											OFFSET 4.52789 0.00000 0.00000
											CHANNELS 3 Zrotation Xrotation Yrotation
											JOINT LeftHandThumb3
											{
												OFFSET 2.46977 0.00000 0.00000
												CHANNELS 3 Zrotation Xrotation Yrotation
												End site
												{
													OFFSET 0.00000 0.00000 0.00000
												}
											}
										}
									}
									JOINT LeftHandIndex1
									{
										OFFSET 14.26970 0.00000 2.88139
										CHANNELS 3 Zrotation Xrotation Yrotation
										JOINT LeftHandIndex2
										{
											OFFSET 5.48836 0.00000 0.00000
											CHANNELS 3 Zrotation Xrotation Yrotation
											JOINT LeftHandIndex3
											{
												OFFSET 3.01859 0.00000 0.00000
												CHANNELS 3 Zrotation Xrotation Yrotation
												End site
												{
													OFFSET 0.00000 0.00000 0.00000
												}
											}
										}
									}
									JOINT LeftHandMiddle1
									{
										OFFSET 14.26970 0.00000 -0.09147
										CHANNELS 3 Zrotation Xrotation Yrotation
										JOINT LeftHandMiddle2
										{
											OFFSET 6.17440 0.00000 0.00000
											CHANNELS 3 Zrotation Xrotation Yrotation
											JOINT LeftHandMiddle3
											{
												OFFSET 3.56744 0.00000 0.00000
												CHANNELS 3 Zrotation Xrotation Yrotation
												End site
												{
													OFFSET 0.00000 0.00000 0.00000
												}
											}
										}
									}
									JOINT LeftHandRing1
									{
										OFFSET 12.69180 0.00000 -3.06433
										CHANNELS 3 Zrotation Xrotation Yrotation
										JOINT LeftHandRing2
										{
											OFFSET 5.62556 0.00000 0.00000
											CHANNELS 3 Zrotation Xrotation Yrotation
											JOINT LeftHandRing3
											{
												OFFSET 3.56744 0.00000 0.00000
												CHANNELS 3 Zrotation Xrotation Yrotation
												End site
												{
													OFFSET 0.00000 0.00000 0.00000
												}
											}
										}
									}
									JOINT LeftHandPinky1
									{
										OFFSET 11.11390 0.00000 -6.03719
										CHANNELS 3 Zrotation Xrotation Yrotation
										JOINT LeftHandPinky2
										{
											OFFSET 4.52789 0.00000 0.00000
											CHANNELS 3 Zrotation Xrotation Yrotation
											JOINT LeftHandPinky3
											{
												OFFSET 2.46976 0.00000 0.00000
												CHANNELS 3 Zrotation Xrotation Yrotation
												End site
												{
													OFFSET 0.00000 0.00000 0.00000
												}
											}
										}
									}
								}
							}
						}
					}
					JOINT pCube4
					{
						OFFSET 0.00000 10.91090 1.10792
						CHANNELS 3 Zrotation Xrotation Yrotation
						End site
						{
							OFFSET 0.00000 0.00000 0.00000
						}
					}
				}
			}
		}
	}
	JOINT RightUpLeg
	{
		OFFSET -9.98441 0.00000 0.00000
		CHANNELS 3 Zrotation Xrotation Yrotation
		JOINT RightLeg
		{
			OFFSET 0.00000 -42.11790 0.00000
			CHANNELS 3 Zrotation Xrotation Yrotation
			JOINT RightFoot
			{
				OFFSET 0.00000 -45.00020 -0.00001
				CHANNELS 3 Zrotation Xrotation Yrotation
				JOINT RightForeFoot
				{
					OFFSET 0.00000 -3.74820 0.00000
					CHANNELS 3 Zrotation Xrotation Yrotation
					JOINT RightToeBase
					{
						OFFSET 0.00000 0.06325 14.43120
						CHANNELS 3 Zrotation Xrotation Yrotation
						End site
						{
							OFFSET 0.00000 0.00000 0.00000
						}
					}
				}
			}
		}
	}
	JOINT LeftUpLeg
	{
		OFFSET 9.98441 0.00000 0.00000
		CHANNELS 3 Zrotation Xrotation Yrotation
		JOINT LeftLeg
		{
			OFFSET 0.00000 -42.11800 0.00000
			CHANNELS 3 Zrotation Xrotation Yrotation
			JOINT LeftFoot
			{
				OFFSET 0.00000 -45.00070 0.00000
				CHANNELS 3 Zrotation Xrotation Yrotation
				JOINT LeftForeFoot
				{
					OFFSET 0.00000 -3.74824 0.00000
					CHANNELS 3 Zrotation Xrotation Yrotation
					JOINT LeftToeBase
					{
						OFFSET 0.00000 0.06325 14.43110
						CHANNELS 3 Zrotation Xrotation Yrotation
						End site
						{
							OFFSET 0.00000 0.00000 0.00000
						}
					}
				}
			}
		}
	}
}
MOTION
Frames: 4
Frame Time: 0.050000
-0.04443413179997522 -0.0402275798262723 -0.03613575338199462 0.0314104179431268 0.027523222827602487 -0.008803196263932346 -1.284495145505892 1.2907139077596186 -0.9682003757949205 -0.422520191550135 3.928012065735139 0.31684054392224087 -0.79708582697628 -1.90841936073992 1.9523253421040396 -1.363265805436414 -0.8848329063016322 -0.2593707186892204 -0.20551086452062578 14.963521271867311 1.0146127475691467 0.5409405415210597 -0.24543841399344102 0.7180701365262457 0.4958446213790422 -15.263934128110419 0.03287655941698529 -4.609620249714179 1.7795235279886965 -13.73763393974503 69.04773014059086 -1.357512762704631 47.23213078392931 9.325605849502224 6.065714979160752 109.79805386282293 19.031860443635214 -0.5915709429420289 -0.9329485056163165 4.578512863772352 -0.07979307419566911 -1.5643036873467038 -0.013423401055184185 0.029657587305658803 -56.219177077625076 0.010139194402200012 0.029387495089926975 -56.19172139703102 -38.720617636035705 0.0020064265842745545 0.021778661569043765 -0.04378926206892565 0.0005756073557763066 -0.04534185826052619 -0.012092717214825003 -0.018477173995420648 0.03896168616951473 -36.71391466805038 0.029948560731657504 0.04039355362007394 -0.012348693740073458 -0.020277715977325226 -0.004995551603367889 0.04843501277789907 -0.01804443056524343 -0.04709257688175343 -19.796691546162705 0.006803235997239105 -0.009507571221139318 0.04741016607152358 -0.040009783383024196 -0.028518577523234126 -0.02665246253205335 -0.03720175906303153 -0.049559042354368074 24.02316942196574 -0.04668776687915546 0.03879096711382137 28.823708996099306 -0.015003772937790314 -0.016438447178886526 28.861062395804886 0.032808832678921575 -0.0033949815263720523 5.354173941799017 1.4066892716243335 13.401509222865258 -70.71441150634807 17.035781607972062 -25.193384466699207 0.453685048322942 -3.1785871297638306 -97.98885530173928 -18.765557410426545 8.841366641064406 -8.018861763108522 -0.48797025824918666 0.07421844307751575 -8.157354028193975 0.03293136970558121 0.0022057769620387885 44.576558923912636 0.02665601056876306 0.03978439593405451 44.60857441343749 12.463390223818278 0.04059782460538229 0.04123381233534792 -0.030032470984091876 -0.017975094241701208 0.022742229615697097 -0.018557634985532853 0.02358754602622792 0.04373923325939305 11.127449900246178 0.034278309376515784 -0.015684388161828294 0.02437547098224682 -0.03453369757736782 -0.047980879634810465 -0.023857147374306126 -0.045460387842420555 0.027214851546991277 4.786712013293452 -0.01772017348966003 -0.007910960565099113 -0.005396028700051764 0.04424603112067362 -0.027124445012445805 -0.011126743386171832 -0.004918400651459826 -0.030458129604124088 -5.553800649949468 0.014529303173772283 0.027066081330790664 -6.715308373002211 0.023520644697675612 -0.04718002303853546 -6.706453995897045 -0.02859097363384656 -0.002121869797856178 -0.0044080205614062526 -0.005231345064471679 0.02625223883070753 8.077670422081379 3.5055258839903187 -19.24240213181339 0.013751684740701157 10.410393335927608 -0.01178959599960806 -5.579491268350075 -15.628897960049565 3.220366793356383 -0.0038721186617376043 -0.002210305837327698 0.03281881262627719 0.017437510508919313 4.65297952980497 -0.029460039093301662 12.443221005543668 -8.285780240369972 6.845544386403969 -0.04593773078124881 46.33971320255344 -0.024551210476588158 -4.335533887101993 -14.772908010239806 -3.8406474479160506 0.03715641294365278 0.04051245523282225 0.032151007157376885 -0.012800445606833657 -10.711251460628977 -0.029215056285410396 
-0.026778196713270017 0.023866724692493027 0.04026628595601041 0.017578565923298015 0.009211021621370911 0.0035185159295843763 -1.399390036220824 1.294388498314821 -0.9715089785927447 -0.43318718563760805 3.934152374062174 0.3374726059228289 -0.7669603698876725 -1.8731990366679212 1.8033310875498916 -1.4060744472607156 -0.9096886900972133 -0.2986619722856678 -0.31771557790020344 15.064735754884685 1.2003242548388195 0.5490970502712493 -0.2812225681278052 1.2253775351681413 0.4127317792337802 -15.424793438739655 0.019233499750622655 -4.5033913915991945 1.6849724216202335 -13.666754405237324 69.51999919007206 -0.39152785059481554 47.215118589814715 8.570086157538555 5.658230244515219 111.0834845336151 18.88007417561056 -0.5711518692177401 -1.0341151277124951 4.526227535774702 -0.13827058217278318 -1.6183459646802105 -0.03037111522673935 -0.014832136943312462 -56.23575025662026 0.0008508308654743958 0.044397859578164195 -56.20252136554274 -38.78104846903324 -0.004150056118494376 0.04771508704966479 0.012485503767050066 0.020503605919358136 -0.012885559532744546 0.016665779586953866 0.0074309069441804735 0.016889280028059016 -36.64713815899463 -0.0073374891601267235 -0.015990276086155112 0.012621480190107974 -0.034301390669283845 -0.012261246851691719 -0.017936117586691617 -0.027392140325156123 -0.01586514582029631 -19.722739127484772 0.0010348533470815212 -6.677112132541967e-05 -0.03402430986421063 -0.039865734449423686 0.04118834977492307 0.008214090024438564 0.006390435451067699 -0.0008030063059421916 24.04252456754166 0.031161839013873493 -0.004662024769625543 28.85329798442909 -0.002411283906286778 -0.04408629100533247 28.872872595373384 -0.018897297907972333 0.01073284067928867 5.694636054071555 1.403265499912246 13.452535861671564 -70.46935115745937 17.736278372213494 -27.071869884119593 2.8978856014020784 -4.2309497482439715 -101.0543452498874 -18.22898592589798 8.947361476975455 -8.133895204897378 -0.4893168932685274 0.02548183692837515 -8.10098976305976 -0.01592878386475931 0.042391617214355026 44.546213237616804 0.012824988893343464 -0.033460312398620067 44.546542604726994 12.451100912062714 -0.011077471972470717 0.03648688707769049 0.0012949607092682936 -0.019981100576526516 -0.007838479805623601 0.034703040051389224 0.012020468075132237 -0.03736869839813851 11.092089374798164 0.021586794498655023 -0.020428933351186625 0.03804901386187637 -0.00946866814595571 0.01995020869354786 0.030367304283364566 0.02031005621905173 -0.043573239023214534 4.771779677440391 -0.030417876557493062 0.04678448391921934 -0.009971961024884485 0.01885258140072647 -0.014309054778266932 -0.030310734180219952 0.003139112520179458 0.004022112599909617 -5.572695147114292 0.020777428029863293 -0.001811672786716647 -6.686437974313014 0.028865811951388164 0.025475584050072594 -6.7675540713991715 0.010110449768363311 0.011664711233060173 0.017431965826108915 0.018851073487690148 0.005888073506971141 8.031406448741766 3.5263703936462467 -19.245697657752622 0.030787070153982424 10.369380335849295 0.021928453489475218 -5.649865248574885 -15.687224749068703 3.1553612412563377 0.02538818742598518 -0.031991510341874876 0.04206875353184501 0.007448511216526145 4.674860177729474 -0.008583325273085538 12.491319162213491 -8.191927017597052 6.895297548489835 -0.042378928545962306 46.42179141880116 -0.00719978034103466 -4.310426808742069 -14.722593869213506 -3.8102313285467226 -0.0033672347908380975 0.025012757120645473 0.00165105799393203 0.02131874159259237 -10.730907492822762 0.046373468845880186 
-0.006377913884964101 -0.010182274985303106 -0.025680553665507595 0.009213926188502182 0.033823891540991656 0.02105340661940281 -1.4718654799927395 1.2707215730424428 -0.9833620471904023 -0.4520639347725195 4.023658912520028 0.35226976920053227 -0.8447908924322312 -1.90490131375603 1.7453732045387504 -1.3319643074953704 -0.8786013609479719 -0.2755320376614155 -0.3460510570356264 15.346429548597943 1.1976135387996611 0.5769301952757697 -0.36834012897344165 1.4602984197678435 0.4345985885976155 -15.58860410721397 0.10240492331174589 -4.469622621003064 1.732766883750788 -13.766818221885007 70.25913587418998 0.3447753143122275 47.35750375036157 7.508736426639847 5.243958581794679 112.40235830268416 18.58329726543577 -0.5587381533487138 -1.0279867416820498 4.536497228684749 -0.14565097543379987 -1.5460478140379326 0.0013622886955038174 -0.015590928208167843 -56.20690939097426 -0.006485671600928507 0.03847368812824707 -56.196176215681234 -38.79774372930806 -0.0029392249396654286 -0.008174137899509767 -0.01772541382708843 0.021340692771030272 -0.034892374225618264 0.032796810342999964 0.005676419759464638 0.009649618217696755 -36.66065781890623 -0.029014984214483647 -0.04349019198111768 0.04879480122938912 -0.0389487564707319 0.013866469169969343 0.0066603901762206175 0.0474805178351759 -0.03497022427996641 -19.743119546008334 0.002474185729269626 0.009188470563702348 -0.004818624519861111 -0.03226958383895659 0.04547645490059586 -0.03422179726299542 -0.0383152537094996 0.0206973747097153 24.08466670424548 0.0022543648557724256 0.035099544841659294 28.819762256776023 -0.015202276732661016 0.03419831998525063 28.8456324159815 0.017072875176109097 0.037438934668331245 5.918056463020829 1.448489420447873 13.48141057885394 -70.24402553704653 18.309532793979443 -28.608230571005727 5.186277628626695 -5.08199008500127 -103.68665232219685 -17.429574420068246 8.801260596193769 -8.079167883408578 -0.49832237340322816 0.07019910904691873 -8.092365095834714 -0.018754464834024043 -0.022695514056392932 44.61110835110704 0.011264528970668266 -0.03882088428955087 44.55652442361908 12.451859611046627 -0.0076071311524224155 -5.3610461377716065e-05 -0.037482111092890166 0.025519274857520778 0.021980078150106806 -0.012062530397005274 -0.008014635879412473 -0.030957585098927997 11.112850979935443 0.008740814153232282 -0.0012530189331998443 -0.035651110320044956 -0.007746655221691823 0.04812773529911057 0.023368867090654305 0.02328681453957687 -0.013503668127197213 4.820388667670518 0.0013515491041706284 -0.009215318174606727 -0.03318790526934775 0.03174296667053896 0.043912374318029676 0.008554814918100867 0.007349504597741805 0.0409972957793565 -5.6155112941306395 -0.00796828446215938 0.00795042756050826 -6.697236828568452 -0.0016342445471840235 -0.012897533019759086 -6.705706171464155 0.011696945065582977 -0.0064143218733206135 0.0153641386655793 -0.04952026140246542 -0.0025279812759357186 8.040329820976305 3.5083839621201696 -19.263080825751107 0.012800157810289299 10.402534853435041 -0.0016903035570107368 -5.596698830835691 -15.617843047249247 3.201389003050214 0.02640915817005935 0.01727605172806203 0.022793735403670225 -0.022940741061285318 4.689518853268536 0.007849944088184853 12.478434007447598 -8.240886700270137 6.904813213344388 0.0018085303752643066 46.41111894315393 0.031973723710080386 -4.346075343987162 -14.758580613463936 -3.8779323701213246 0.013252621230444893 0.018686941277698675 0.009571004560801424 0.00024061922160863714 -10.74537846957218 -0.0339937539924298 
0.033633927114319964 0.0026481664047705972 0.03226532302488013 0.018278936681001168 0.03991926767320766 0.021894939460608442 -1.410127816841387 1.1898197434820719 -1.0313528876918832 -0.45818541235464555 4.011034786598809 0.33407646792993595 -0.7598677692600762 -1.9242728457319869 1.6740936298574953 -1.3445600855667366 -0.8003967041718933 -0.3359615612195743 -0.3282041261163964 15.60588789031583 1.2676221148543108 0.5946127161156859 -0.3251297939604678 1.6625268887940023 0.40264510792714336 -15.699727751345272 0.1105037549042872 -4.489728606619755 1.6466142709727802 -13.769448593734895 70.7172340029689 1.8036573044268907 47.486469521845606 6.236618582448064 4.721324493408303 113.74762338836494 18.220241544869882 -0.5775350807419057 -1.003919583552741 4.576083404207786 -0.15244071470878454 -1.56505576430971 0.04448890438891727 -0.0003586991477539043 -56.270620067309956 0.04690061116805014 -0.02006724665946335 -56.20706608563242 -38.780358673218956 0.04083751572874734 -0.03811503417828215 -0.0019130102673614083 -0.040446504242152584 -0.045184476354824754 -0.01681482857092729 0.013833914207997105 0.034755154447682735 -36.67008696994721 -0.02360702200101636 0.04339423558474642 0.015877592199154633 -0.005501335275967455 0.022975259076761116 0.004693760407359891 -0.014730895291099185 -0.040662681563440675 -19.724448555136174 -0.02140945472844487 -0.04697498383034041 0.031540458480866375 -0.017167696514043766 -0.03179615111161736 -0.01366499229130397 -0.02553508528864808 -0.040792520926464015 24.0408296645935 0.04851947190481381 -0.02529411999862029 28.890928370773672 -0.036960563138223095 -0.017201302898551242 28.87057726706272 0.011707716831306364 0.02846400006866343 6.258214958198872 1.4813467037251073 13.465516687288648 -70.08818975850787 18.927371006306284 -30.26823409970999 6.537331449321538 -5.600650671865695 -105.68146321772333 -16.810324852881127 8.516992075843142 -7.826233027406166 -0.44129872635969425 0.08429381858416987 -8.130485832598428 -0.002445063095376099 0.0006132594404648668 44.589789083581735 0.02412924865376179 -0.004007080747223414 44.58287275650384 12.46008576951319 -0.012699222141695938 0.022825888295269964 0.035255408129361676 0.044919120187498655 -0.026822693333180617 0.046934295601847364 0.045725562244951376 -0.0037380964516546423 11.069314611773006 0.00880139963030149 -0.007556490655210373 0.027485854435417675 0.039717673748732335 -0.02617367403883729 -0.04974142347171623 -0.02008786966278816 -0.035924809673917896 4.738303998704127 0.01910133683301612 0.0006527123329586643 0.014461600699046694 0.02390666343839847 -0.026562676891608294 -0.00784097747043087 -0.01946353912091138 0.02261029409341299 -5.638935539598005 0.0385098394220427 0.04381035075524627 -6.671257521962672 0.004495448689497533 0.024809083072736396 -6.758930912101601 -0.02617261431554499 0.014361485080628893 0.0010090851755113228 -0.01562540997075832 0.0372537286574591 8.030910050529553 3.454951196257652 -19.25179216543741 0.018074866808842346 10.355313476536134 0.058612106903476055 -5.57213881393071 -15.639404156393006 3.178261096109327 0.02301678461389141 0.0034689620607746643 -0.0012252571719906004 -0.01868335998443419 4.689038862997124 -0.04532413633905318 12.451667989265076 -8.234328849744964 6.89692737519463 0.013406960308226403 46.369036243233744 0.031185799291987008 -4.337204218209442 -14.786244467883957 -3.7985554982311287 0.01348105072972935 0.03289075310807546 -0.016242022963116685 0.04920486823356816 -10.751581585960656 -0.04848964436335229 
